<?xml version="1.0" encoding="utf-8"?>
<!-- Generator: Adobe Illustrator 22.0.1, SVG Export Plug-In . SVG Version: 6.00 Build 0)  -->
<svg version="1.1" id="Шар_1" xmlns="http://www.w3.org/2000/svg" xmlns:xlink="http://www.w3.org/1999/xlink" x="0px" y="0px"
	 width="318.9px" height="318.9px" viewBox="0 0 318.9 318.9" style="enable-background:new 0 0 318.9 318.9;" xml:space="preserve"
	>
<style type="text/css">
	.st0{fill:#FFFFFF;stroke:#BFC0C1;stroke-width:10;stroke-miterlimit:10;}
	.st1{fill:#E0B74F;}
	.st2{fill:#B24209;}
	.st3{fill:#04770C;}
	.st4{fill:#BFC0C1;}
</style>
<circle Class="st0" cx="159.5" cy="159.5" r="154.5"/>
<g id="Шар_2_1_">
	<path Class="st1" d="M116.4,156.8c-51.3,5.4-50.5,22.8-31,27.7c63,15.8,130.9,1.3,138.8-0.5c43.8-10.1,24.3-21,24.3-21
		s10.8,3.6,12.3,10.3c1.3,5.8,3,12-23.8,17.5c-27.3,7.5-92.7,14.3-131.3,8.3c-19-3-54.8-9.3-50-23.5
		C61.1,159.1,104.7,153.9,116.4,156.8z"/>
	<path Class="st1" d="M65.7,192.2c0,0-17,18-4.3,38.5c14.6,23.5,166.9,28.6,195,0.5c17.8-17.8-10.8-39-10.8-39s-0.7,2.7-2.7,6.6
		c-6.4,12.7-24.1,24.9-38.3,28.4c-52.6,12.9-64.2,10.7-108.5,6.3C51.2,228.9,65.7,192.2,65.7,192.2z"/>
	<path Class="st2" d="M82.9,170.7c0,0-18,15.3,47.5,17.6c40.9,1.5,89.9-5,107.2-10.7c3.5-1.2,11.5-5.4,8.9-11.1
		c-5.4-11.8-69.3-10.7-69.3-10.7s35.7,3.4,43.7,6.4c22.6,8.4,8.3,13.5-17.5,16C70.9,191.1,82.9,170.7,82.9,170.7z"/>
	<path Class="st2" d="M105.7,179c0,0-32.8-11.5,42.5-14.8c8.5-0.4,88-0.8,69.3,9.7c13-7.5-4.6-11.6-26-14.2
		c-21.2-2.6-47.2-6.6-101,4.5C66.2,169.2,105.7,179,105.7,179z"/>
	<path Class="st2" d="M173.9,167.5c0-1.1-65.3-2-66.3,5.6c-1,7.6,81.8,9.3,103.8,0.2c1.8-0.8,1.8-3.3,0-4c-5.2-2.1-20.1-4-31-1.2
		c-0.6,0.2,21.1,2.1,15,3.8c-20.7,3.1-42.3,4.5-60.2,0.9c-1.1-0.2-1.2-1.7-0.1-1.8C149.4,169,173.9,168.2,173.9,167.5z"/>
	<ellipse Class="st3" cx="111.3" cy="179" rx="2.8" ry="1.3"/>
	<ellipse Class="st3" cx="183.8" cy="170.3" rx="4.1" ry="1.3"/>
	<ellipse Class="st3" cx="149.6" cy="172.2" rx="4.1" ry="1.3"/>
	<path Class="st4" d="M145.4,149.5c-1.6-1,14-16.9,10.8-37.2c-2.3-14.5-11.8-16.3-13.5-29.8c-2.7-21.2,17.9-40.9,20-39.8
		c1.8,1-11.7,16.4-8.3,36.8c2.5,14.8,11.3,16.6,12.8,29.5C169.7,130.8,147.2,150.6,145.4,149.5z"/>
	<path Class="st4" d="M177.7,145.5c-0.5-0.8,7.9-4,10.5-12.3c2.9-9.3-4.8-14.6-5.3-25.2c-0.8-17.8,19.3-32.4,20.5-31.5
		c1.1,0.8-14.1,13.6-12.5,30.8c1.1,11.6,9,15.5,6.8,23.7C194.8,141.7,178.4,146.6,177.7,145.5z"/>
	<path Class="st4" d="M117.2,146c-1-0.7,10.3-11.4,7.3-22.5c-2.7-9.7-13.4-9.1-18.8-20.5c-5.3-11.3,4.2-30.5,5.6-30.5
		c1.4,0-4.4,17.3,2.8,27.8c7.5,10.9,16.3,9.6,19.1,17.5C137.4,129.6,118.4,146.8,117.2,146z"/>
	<path Class="st1" d="M52.2,176.2C50,176.9,29.9,169,39.7,152c6.9-11.9,38.5-22.2,52.8-14.1c9.8,5.6,12.7,15.3,11.7,16
		c-0.7,0.5-3.4-8.3-23.4-10c-11.8-1-23,4.2-29.5,12.9C41.1,170.3,54.1,175.6,52.2,176.2z"/>
	<path Class="st1" d="M236.9,154.5c-1-0.9,4.6-8.7,15-13c13-5.4,41.6,8.2,43.8,17.9c3,13.8-31.1,19.8-31.5,19.3
		c-0.3-0.4,14.5-5.6,19.3-15.2c3.2-6.6-18.3-18.2-26.5-17.5C242.4,147.2,237.8,155.3,236.9,154.5z"/>
</g>
</svg>
