<?xml version="1.0" encoding="utf-8"?>
<!-- Generator: Adobe Illustrator 22.0.1, SVG Export Plug-In . SVG Version: 6.00 Build 0)  -->
<svg version="1.1" id="Шар_1" xmlns="http://www.w3.org/2000/svg" xmlns:xlink="http://www.w3.org/1999/xlink" x="0px" y="0px"
	 width="1280.001px" height="1023.999px" viewBox="0 0 1280.001 1023.999" style="enable-background:new 0 0 1280.001 1023.999;"
	 xml:space="preserve">
<style type="text/css">
	.st0{display:none;}
	.st1{fill:#E0B74F;}
	.st2{fill:#B24209;}
	.st3{fill:#04770C;}
	.st4{fill:#BFC0C1;}
</style>
<g id="Шар_1_1_" class="st0">
	
		<image style="display:inline;overflow:visible;enable-background:new    ;" width="512" height="512" xlink:href="../../photo_2021-06-01_09-33-25.jpg"  transform="matrix(0.75 0 0 0.75 448 319.9987)">
	</image>
</g>
<g id="Шар_2_1_">
	<path class="st1" d="M593.5,597.843c-51.25,5.405-50.471,22.788-31,27.655c63,15.75,130.924,1.343,138.75-0.461
		c43.75-10.082,24.25-21.039,24.25-21.039s10.798,3.57,12.25,10.25c1.25,5.75,3,12-23.75,17.5c-27.25,7.5-92.677,14.341-131.25,8.25
		c-19-3-54.75-9.25-50-23.5C538.196,600.161,581.75,594.956,593.5,597.843z"/>
	<path class="st1" d="M542.75,633.249c0,0-17,18-4.25,38.5c14.587,23.453,166.877,28.623,195,0.5c17.75-17.75-10.75-39-10.75-39
		s-0.689,2.658-2.662,6.583c-6.387,12.701-24.088,24.917-38.338,28.417c-52.578,12.914-64.242,10.738-108.5,6.25
		C528.267,669.937,542.75,633.249,542.75,633.249z"/>
	<path class="st2" d="M560,611.749c0,0-18,15.25,47.5,17.613c40.86,1.474,89.899-4.968,107.16-10.696
		c3.516-1.167,11.481-5.446,8.916-11.095c-5.381-11.848-69.326-10.681-69.326-10.681s35.657,3.359,43.676,6.359
		c22.571,8.444,8.255,13.5-17.5,16C547.988,632.104,560,611.749,560,611.749z"/>
	<path class="st2" d="M582.75,619.999c0,0-32.75-11.5,42.5-14.75c8.507-0.367,88-0.75,69.25,9.708c13-7.458-4.572-11.625-26-14.208
		c-21.22-2.558-47.153-6.603-101,4.5C543.25,610.249,582.75,619.999,582.75,619.999z"/>
	<path class="st2" d="M651,608.499c-0.004-1.062-65.25-2-66.25,5.584c-1.001,7.594,81.798,9.313,103.796,0.152
		c1.829-0.762,1.811-3.312-0.029-4.046c-5.201-2.074-20.149-4.001-31.017-1.19c-0.599,0.155,21.094,2.058,15.032,3.792
		c-20.657,3.083-42.282,4.458-60.175,0.852c-1.079-0.217-1.157-1.665-0.064-1.803C626.499,610.048,651.003,609.238,651,608.499z"/>
	<ellipse class="st3" cx="588.375" cy="619.999" rx="2.75" ry="1.313"/>
	<ellipse class="st3" cx="660.875" cy="611.374" rx="4.125" ry="1.313"/>
	<ellipse class="st3" cx="626.625" cy="613.217" rx="4.125" ry="1.25"/>
	<path class="st4" d="M622.5,590.499c-1.564-0.961,13.986-16.858,10.75-37.25c-2.309-14.55-11.79-16.31-13.5-29.75
		c-2.703-21.244,17.924-40.884,20-39.75c1.783,0.974-11.68,16.415-8.25,36.75c2.491,14.766,11.276,16.627,12.75,29.5
		C646.752,571.857,624.296,591.602,622.5,590.499z"/>
	<path class="st4" d="M654.75,586.499c-0.545-0.814,7.888-4.027,10.5-12.25c2.94-9.258-4.767-14.577-5.25-25.25
		c-0.805-17.801,19.308-32.388,20.5-31.5c1.075,0.801-14.1,13.566-12.5,30.75c1.084,11.641,8.953,15.495,6.75,23.75
		C671.881,582.75,655.493,587.608,654.75,586.499z"/>
	<path class="st4" d="M594.25,586.999c-0.992-0.67,10.302-11.42,7.25-22.5c-2.669-9.688-13.395-9.058-18.75-20.5
		c-5.298-11.319,4.199-30.491,5.625-30.5c1.353-0.008-4.432,17.328,2.75,27.75c7.519,10.91,16.33,9.552,19.125,17.5
		C614.444,570.675,595.517,587.855,594.25,586.999z"/>
	<path class="st1" d="M529.25,617.261c-2.132,0.678-22.25-7.2-12.5-24.179c6.858-11.943,38.486-22.195,52.75-14.084
		c9.818,5.583,12.692,15.318,11.657,16c-0.727,0.479-3.407-8.345-23.422-10c-11.778-0.974-23.023,4.245-29.486,12.876
		C518.142,611.374,531.157,616.655,529.25,617.261z"/>
	<path class="st1" d="M714,595.499c-1.008-0.9,4.63-8.654,15-13c12.999-5.448,41.623,8.19,43.75,17.946
		c3.005,13.787-31.071,19.791-31.5,19.272c-0.297-0.359,14.5-5.601,19.25-15.218c3.24-6.56-18.268-18.166-26.5-17.469
		C719.462,588.259,714.9,596.303,714,595.499z"/>
</g>
</svg>
