<svg width="259" height="208" viewBox="0 0 259 208" fill="none" xmlns="http://www.w3.org/2000/svg">
<path d="M79.3767 114.144C28.0767 119.544 28.8767 136.944 48.3767 141.844C111.377 157.644 179.277 143.144 187.177 141.344C230.977 131.244 211.477 120.344 211.477 120.344C211.477 120.344 222.277 123.944 223.777 130.644C225.077 136.444 226.777 142.644 199.977 148.144C172.677 155.644 107.277 162.444 68.6767 156.444C49.6767 153.444 13.8767 147.144 18.6767 132.944C24.0767 116.444 67.6767 111.244 79.3767 114.144Z" fill="white"/>
<path d="M28.6766 149.544C28.6766 149.544 11.6767 167.544 24.3767 188.044C38.9767 211.544 191.277 216.644 219.377 188.544C237.177 170.744 208.577 149.544 208.577 149.544C208.577 149.544 207.877 152.244 205.877 156.144C199.477 168.844 181.777 181.044 167.577 184.544C114.977 197.444 103.377 195.244 59.0766 190.844C14.1766 186.244 28.6766 149.544 28.6766 149.544Z" fill="white"/>
<path d="M45.8767 128.044C45.8767 128.044 27.8767 143.344 93.3767 145.644C134.277 147.144 183.277 140.644 200.577 134.944C204.077 133.744 212.077 129.544 209.477 123.844C204.077 112.044 140.177 113.144 140.177 113.144C140.177 113.144 175.877 116.544 183.877 119.544C206.477 127.944 192.177 133.044 166.377 135.544C33.8767 148.444 45.8767 128.044 45.8767 128.044Z" fill="#BFC0C1"/>
<path d="M68.6766 136.344C68.6766 136.344 35.8766 124.844 111.177 121.544C119.677 121.144 199.177 120.744 180.477 131.244C193.477 123.744 175.877 119.644 154.477 117.044C133.277 114.444 107.277 110.444 53.4766 121.544C29.1766 126.544 68.6766 136.344 68.6766 136.344Z" fill="#BFC0C1"/>
<path d="M136.877 124.844C136.877 123.744 71.5767 122.844 70.5767 130.444C69.5767 138.044 152.377 139.744 174.377 130.644C176.177 129.844 176.177 127.344 174.377 126.644C169.177 124.544 154.277 122.644 143.377 125.444C142.777 125.644 164.477 127.544 158.377 129.244C137.677 132.344 116.077 133.744 98.1767 130.144C97.0767 129.944 96.9767 128.444 98.0767 128.344C112.377 126.344 136.877 125.544 136.877 124.844Z" fill="#BFC0C1"/>
<path d="M74.2767 137.644C75.8231 137.644 77.0767 137.062 77.0767 136.344C77.0767 135.626 75.8231 135.044 74.2767 135.044C72.7303 135.044 71.4767 135.626 71.4767 136.344C71.4767 137.062 72.7303 137.644 74.2767 137.644Z" fill="#BFC0C1"/>
<path d="M146.777 128.944C149.041 128.944 150.877 128.362 150.877 127.644C150.877 126.926 149.041 126.344 146.777 126.344C144.512 126.344 142.677 126.926 142.677 127.644C142.677 128.362 144.512 128.944 146.777 128.944Z" fill="#BFC0C1"/>
<path d="M112.577 130.844C114.841 130.844 116.677 130.262 116.677 129.544C116.677 128.826 114.841 128.244 112.577 128.244C110.312 128.244 108.477 128.826 108.477 129.544C108.477 130.262 110.312 130.844 112.577 130.844Z" fill="#BFC0C1"/>
<path d="M108.377 106.844C106.777 105.844 122.377 89.944 119.177 69.644C116.877 55.144 107.377 53.344 105.677 39.844C102.977 18.644 123.577 -1.05601 125.677 0.0439934C127.477 1.04399 113.977 16.444 117.377 36.844C119.877 51.644 128.677 53.444 130.177 66.344C132.677 88.144 110.177 107.944 108.377 106.844Z" fill="#BFC0C1"/>
<path d="M140.677 102.844C140.177 102.044 148.577 98.8439 151.177 90.5439C154.077 81.2439 146.377 75.9439 145.877 65.3439C145.077 47.5439 165.177 32.9439 166.377 33.8439C167.477 34.6439 152.277 47.4439 153.877 64.6439C154.977 76.2439 162.877 80.1439 160.677 88.3439C157.777 99.0439 141.377 103.944 140.677 102.844Z" fill="#BFC0C1"/>
<path d="M80.1766 103.344C79.1766 102.644 90.4767 91.944 87.4767 80.844C84.7767 71.144 74.0766 71.744 68.6766 60.344C63.3766 49.044 72.8767 29.844 74.2767 29.844C75.6767 29.844 69.8766 47.144 77.0766 57.644C84.5766 68.544 93.3766 67.244 96.1766 75.144C100.377 86.944 81.3766 104.144 80.1766 103.344Z" fill="#BFC0C1"/>
<path d="M15.1767 133.544C12.9767 134.244 -7.12334 126.344 2.67666 109.344C9.57666 97.444 41.1767 87.144 55.4767 95.244C65.2767 100.844 68.1767 110.544 67.1767 111.244C66.4767 111.744 63.7767 102.944 43.7767 101.244C31.9767 100.244 20.7767 105.444 14.2767 114.144C4.07666 127.644 17.0767 132.944 15.1767 133.544Z" fill="white"/>
<path d="M199.877 111.844C198.877 110.944 204.477 103.144 214.877 98.844C227.877 93.444 256.477 107.044 258.677 116.744C261.677 130.544 227.577 136.544 227.177 136.044C226.877 135.644 241.677 130.444 246.477 120.844C249.677 114.244 228.177 102.644 219.977 103.344C205.377 104.544 200.777 112.644 199.877 111.844Z" fill="white"/>
</svg>
